<svg width="44" height="42" viewBox="0 0 44 42" fill="none" xmlns="http://www.w3.org/2000/svg">
<path d="M7.96064 6.22222H36.7172C39.6383 6.22222 41.7008 9.0456 40.7771 11.7796L37.2108 22.3353C36.6284 24.0592 34.993 25.2222 33.1511 25.2222H10.7117M7.96064 6.22222L7.8742 5.62512C7.57301 3.54504 5.76743 2 3.63776 2H2M7.96064 6.22222L10.7117 25.2222M10.7117 25.2222L11.1039 27.9304C11.405 30.0104 13.2106 31.5556 15.3403 31.5556H34.0958M34.0958 31.5556C31.7323 31.5556 29.8164 33.4458 29.8164 35.7778C29.8164 38.1097 31.7323 40 34.0958 40C36.4594 40 38.3753 38.1097 38.3753 35.7778C38.3753 33.4458 36.4594 31.5556 34.0958 31.5556ZM21.2575 35.7778C21.2575 38.1097 19.3416 40 16.978 40C14.6146 40 12.6986 38.1097 12.6986 35.7778C12.6986 33.4458 14.6146 31.5556 16.978 31.5556C19.3416 31.5556 21.2575 33.4458 21.2575 35.7778Z" stroke="#68B984" stroke-width="4" stroke-linecap="round" stroke-linejoin="round"/>
</svg>
